<svg xmlns="http://www.w3.org/2000/svg" viewBox="0 0 256 256" role="img" aria-label="gDownloader">
  <defs>
    <radialGradient id="bg" cx="36%" cy="28%" r="78%">
      <stop offset="0" stop-color="#193f46"/>
      <stop offset="0.58" stop-color="#0b252b"/>
      <stop offset="1" stop-color="#061418"/>
    </radialGradient>
    <linearGradient id="arrow" x1="96" x2="177" y1="49" y2="206" gradientUnits="userSpaceOnUse">
      <stop offset="0" stop-color="#d9f99d"/>
      <stop offset="0.48" stop-color="#facc15"/>
      <stop offset="1" stop-color="#f97316"/>
    </linearGradient>
    <linearGradient id="globe" x1="52" x2="166" y1="66" y2="187" gradientUnits="userSpaceOnUse">
      <stop offset="0" stop-color="#84cc16"/>
      <stop offset="1" stop-color="#16a34a"/>
    </linearGradient>
  </defs>
  <circle cx="128" cy="128" r="116" fill="url(#bg)"/>
  <path d="M67 129c0-37 30-67 67-67 19 0 36 8 48 20-10-4-22-5-34-3-33 5-57 35-52 68 3 20 15 36 31 46-34-3-60-31-60-64Z" fill="#12343a"/>
  <path d="M56 135c0-43 35-78 78-78 16 0 31 5 44 13-9 2-18 6-26 12-7-2-14-3-22-2l-10 17 12 17 24-19c8 5 14 12 18 20l-18 15-32-7-15 11 2 21-22-13-26 13c-4-6-7-13-7-20Zm31 54 18-7 16 9 30-9 21-27 17 3c-11 28-38 48-70 48-12 0-23-3-32-7Z" fill="url(#globe)" opacity=".96"/>
  <path d="M180 32c23 33 34 98 38 135l24-4-37 64-50-49 26-4c-6-55-23-112-48-132 17 1 33 4 47 10Z" fill="url(#arrow)"/>
  <path d="M190 55c16 33 25 78 29 112l23-4-37 64-50-49 26-4c-4-36-13-74-28-101 12-8 24-14 37-18Z" fill="#facc15" opacity=".22"/>
  <path d="M178 83c2 12 2 27-1 42-6 31-28 66-68 79 43-3 81-34 96-80-4-17-12-32-27-41Z" fill="#f59e0b" opacity=".5"/>
</svg>
